<?xml version="1.0" encoding="UTF-8"?>
<!DOCTYPE svg PUBLIC "-//W3C//DTD SVG 1.1//EN" "http://www.w3.org/Graphics/SVG/1.1/DTD/svg11.dtd">
<svg xmlns="http://www.w3.org/2000/svg" version="1.1" width="256px" height="256px" style="shape-rendering:geometricPrecision; text-rendering:geometricPrecision; image-rendering:optimizeQuality; fill-rule:evenodd; clip-rule:evenodd" xmlns:xlink="http://www.w3.org/1999/xlink">
<g><path style="opacity:1" fill="#7e3300" d="M 190.5,72.5 C 190.5,65.1667 190.5,57.8333 190.5,50.5C 182.167,50.5 173.833,50.5 165.5,50.5C 165.5,46.8333 165.5,43.1667 165.5,39.5C 176.833,39.5 188.167,39.5 199.5,39.5C 199.5,50.5 199.5,61.5 199.5,72.5C 196.5,72.5 193.5,72.5 190.5,72.5 Z"/></g>
<g><path style="opacity:1" fill="#883700" d="M 165.5,50.5 C 165.5,57.8333 165.5,65.1667 165.5,72.5C 173.833,72.5 182.167,72.5 190.5,72.5C 190.5,77.8333 190.5,83.1667 190.5,88.5C 172.833,88.5 155.167,88.5 137.5,88.5C 137.5,75.8333 137.5,63.1667 137.5,50.5C 146.833,50.5 156.167,50.5 165.5,50.5 Z"/></g>
<g><path style="opacity:1" fill="#430b00" d="M 165.5,50.5 C 173.833,50.5 182.167,50.5 190.5,50.5C 190.5,57.8333 190.5,65.1667 190.5,72.5C 182.167,72.5 173.833,72.5 165.5,72.5C 165.5,65.1667 165.5,57.8333 165.5,50.5 Z"/></g>
<g><path style="opacity:1" fill="#bb4b00" d="M 130.5,88.5 C 125.5,88.5 120.5,88.5 115.5,88.5C 115.5,90.5 115.5,92.5 115.5,94.5C 107.167,94.5 98.8333,94.5 90.5,94.5C 90.5,91.8333 90.5,89.1667 90.5,86.5C 84.1667,86.5 77.8333,86.5 71.5,86.5C 71.5,76.1667 71.5,65.8333 71.5,55.5C 91.1667,55.5 110.833,55.5 130.5,55.5C 130.5,66.5 130.5,77.5 130.5,88.5 Z"/></g>
<g><path style="opacity:1" fill="#f86300" d="M 71.5,86.5 C 71.5,89.1667 71.5,91.8333 71.5,94.5C 70.5073,102.65 70.1739,110.983 70.5,119.5C 63.8333,119.5 57.1667,119.5 50.5,119.5C 50.5,108.5 50.5,97.5 50.5,86.5C 57.5,86.5 64.5,86.5 71.5,86.5 Z"/></g>
<g><path style="opacity:1" fill="#b71d00" d="M 71.5,86.5 C 77.8333,86.5 84.1667,86.5 90.5,86.5C 90.5,89.1667 90.5,91.8333 90.5,94.5C 84.1667,94.5 77.8333,94.5 71.5,94.5C 71.5,91.8333 71.5,89.1667 71.5,86.5 Z"/></g>
<g><path style="opacity:1" fill="#751300" d="M 130.5,88.5 C 130.5,90.5 130.5,92.5 130.5,94.5C 125.5,94.5 120.5,94.5 115.5,94.5C 115.5,92.5 115.5,90.5 115.5,88.5C 120.5,88.5 125.5,88.5 130.5,88.5 Z"/></g>
<g><path style="opacity:1" fill="#9f4000" d="M 130.5,88.5 C 132.833,88.5 135.167,88.5 137.5,88.5C 137.5,90.5 137.5,92.5 137.5,94.5C 135.167,94.5 132.833,94.5 130.5,94.5C 130.5,92.5 130.5,90.5 130.5,88.5 Z"/></g>
<g><path style="opacity:1" fill="#550e00" d="M 137.5,88.5 C 155.167,88.5 172.833,88.5 190.5,88.5C 190.5,92.1667 190.5,95.8333 190.5,99.5C 175.833,99.5 161.167,99.5 146.5,99.5C 146.5,97.8333 146.5,96.1667 146.5,94.5C 143.5,94.5 140.5,94.5 137.5,94.5C 137.5,92.5 137.5,90.5 137.5,88.5 Z"/></g>
<g><path style="opacity:1" fill="#9f4000" d="M 190.5,88.5 C 193.5,88.5 196.5,88.5 199.5,88.5C 199.5,113.5 199.5,138.5 199.5,163.5C 195.167,163.5 190.833,163.5 186.5,163.5C 186.5,161.5 186.5,159.5 186.5,157.5C 173.167,157.5 159.833,157.5 146.5,157.5C 146.5,154.167 146.5,150.833 146.5,147.5C 155.5,147.5 164.5,147.5 173.5,147.5C 173.5,133.833 173.5,120.167 173.5,106.5C 164.5,106.5 155.5,106.5 146.5,106.5C 146.5,104.167 146.5,101.833 146.5,99.5C 161.167,99.5 175.833,99.5 190.5,99.5C 190.5,95.8333 190.5,92.1667 190.5,88.5 Z"/></g>
<g><path style="opacity:1" fill="#970a00" d="M 71.5,94.5 C 77.8333,94.5 84.1667,94.5 90.5,94.5C 90.5,102.833 90.5,111.167 90.5,119.5C 84.1667,119.5 77.8333,119.5 71.5,119.5C 71.5,111.167 71.5,102.833 71.5,94.5 Z"/></g>
<g><path style="opacity:1" fill="#9b1900" d="M 90.5,94.5 C 98.8333,94.5 107.167,94.5 115.5,94.5C 115.5,103.5 115.5,112.5 115.5,121.5C 100.462,122.15 85.7952,121.483 71.5,119.5C 77.8333,119.5 84.1667,119.5 90.5,119.5C 90.5,111.167 90.5,102.833 90.5,94.5 Z"/></g>
<g><path style="opacity:1" fill="#610600" d="M 115.5,94.5 C 120.5,94.5 125.5,94.5 130.5,94.5C 130.5,103.5 130.5,112.5 130.5,121.5C 125.5,121.5 120.5,121.5 115.5,121.5C 115.5,112.5 115.5,103.5 115.5,94.5 Z"/></g>
<g><path style="opacity:1" fill="#831500" d="M 130.5,94.5 C 132.833,94.5 135.167,94.5 137.5,94.5C 137.5,96.1667 137.5,97.8333 137.5,99.5C 140.5,99.5 143.5,99.5 146.5,99.5C 146.5,101.833 146.5,104.167 146.5,106.5C 143.5,106.5 140.5,106.5 137.5,106.5C 137.5,120.167 137.5,133.833 137.5,147.5C 140.5,147.5 143.5,147.5 146.5,147.5C 146.5,150.833 146.5,154.167 146.5,157.5C 142.167,157.5 137.833,157.5 133.5,157.5C 133.5,159.5 133.5,161.5 133.5,163.5C 132.5,163.5 131.5,163.5 130.5,163.5C 130.5,152.167 130.5,140.833 130.5,129.5C 125.5,129.5 120.5,129.5 115.5,129.5C 115.5,126.833 115.5,124.167 115.5,121.5C 120.5,121.5 125.5,121.5 130.5,121.5C 130.5,112.5 130.5,103.5 130.5,94.5 Z"/></g>
<g><path style="opacity:1" fill="#460500" d="M 137.5,94.5 C 140.5,94.5 143.5,94.5 146.5,94.5C 146.5,96.1667 146.5,97.8333 146.5,99.5C 143.5,99.5 140.5,99.5 137.5,99.5C 137.5,97.8333 137.5,96.1667 137.5,94.5 Z"/></g>
<g><path style="opacity:1" fill="#360400" d="M 146.5,106.5 C 146.5,120.167 146.5,133.833 146.5,147.5C 143.5,147.5 140.5,147.5 137.5,147.5C 137.5,133.833 137.5,120.167 137.5,106.5C 140.5,106.5 143.5,106.5 146.5,106.5 Z"/></g>
<g><path style="opacity:1" fill="#420b00" d="M 146.5,106.5 C 155.5,106.5 164.5,106.5 173.5,106.5C 173.5,120.167 173.5,133.833 173.5,147.5C 164.5,147.5 155.5,147.5 146.5,147.5C 146.5,133.833 146.5,120.167 146.5,106.5 Z"/></g>
<g><path style="opacity:1" fill="#d25200" d="M 71.5,94.5 C 71.5,102.833 71.5,111.167 71.5,119.5C 85.7952,121.483 100.462,122.15 115.5,121.5C 115.5,124.167 115.5,126.833 115.5,129.5C 106.167,129.5 96.8333,129.5 87.5,129.5C 87.5,134.167 87.5,138.833 87.5,143.5C 81.8333,143.5 76.1667,143.5 70.5,143.5C 70.5,135.5 70.5,127.5 70.5,119.5C 70.1739,110.983 70.5073,102.65 71.5,94.5 Z"/></g>
<g><path style="opacity:1" fill="#681100" d="M 115.5,129.5 C 115.5,134.167 115.5,138.833 115.5,143.5C 106.167,143.5 96.8333,143.5 87.5,143.5C 87.5,138.833 87.5,134.167 87.5,129.5C 96.8333,129.5 106.167,129.5 115.5,129.5 Z"/></g>
<g><path style="opacity:1" fill="#420300" d="M 115.5,129.5 C 120.5,129.5 125.5,129.5 130.5,129.5C 130.5,140.833 130.5,152.167 130.5,163.5C 125.833,163.5 121.167,163.5 116.5,163.5C 115.509,157.021 115.176,150.354 115.5,143.5C 115.5,138.833 115.5,134.167 115.5,129.5 Z"/></g>
<g><path style="opacity:1" fill="#fe6a00" d="M 70.5,143.5 C 70.5,156.167 70.5,168.833 70.5,181.5C 76.1667,181.5 81.8333,181.5 87.5,181.5C 87.5,184.5 87.5,187.5 87.5,190.5C 97.1667,190.5 106.833,190.5 116.5,190.5C 116.5,195.833 116.5,201.167 116.5,206.5C 94.8333,206.5 73.1667,206.5 51.5,206.5C 51.5,185.5 51.5,164.5 51.5,143.5C 57.8333,143.5 64.1667,143.5 70.5,143.5 Z"/></g>
<g><path style="opacity:1" fill="#d22300" d="M 70.5,143.5 C 76.1667,143.5 81.8333,143.5 87.5,143.5C 87.5,156.167 87.5,168.833 87.5,181.5C 81.8333,181.5 76.1667,181.5 70.5,181.5C 70.5,168.833 70.5,156.167 70.5,143.5 Z"/></g>
<g><path style="opacity:1" fill="#680700" d="M 87.5,143.5 C 96.8333,143.5 106.167,143.5 115.5,143.5C 115.176,150.354 115.509,157.021 116.5,163.5C 116.5,169.5 116.5,175.5 116.5,181.5C 106.833,181.5 97.1667,181.5 87.5,181.5C 87.5,168.833 87.5,156.167 87.5,143.5 Z"/></g>
<g><path style="opacity:1" fill="#520500" d="M 146.5,157.5 C 146.5,159.5 146.5,161.5 146.5,163.5C 142.167,163.5 137.833,163.5 133.5,163.5C 133.5,161.5 133.5,159.5 133.5,157.5C 137.833,157.5 142.167,157.5 146.5,157.5 Z"/></g>
<g><path style="opacity:1" fill="#631000" d="M 146.5,157.5 C 159.833,157.5 173.167,157.5 186.5,157.5C 186.5,159.5 186.5,161.5 186.5,163.5C 173.167,163.5 159.833,163.5 146.5,163.5C 146.5,161.5 146.5,159.5 146.5,157.5 Z"/></g>
<g><path style="opacity:1" fill="#681100" d="M 116.5,163.5 C 121.167,163.5 125.833,163.5 130.5,163.5C 130.5,169.5 130.5,175.5 130.5,181.5C 125.833,181.5 121.167,181.5 116.5,181.5C 116.5,175.5 116.5,169.5 116.5,163.5 Z"/></g>
<g><path style="opacity:1" fill="#d25400" d="M 130.5,163.5 C 131.5,163.5 132.5,163.5 133.5,163.5C 133.5,169.5 133.5,175.5 133.5,181.5C 132.5,181.5 131.5,181.5 130.5,181.5C 130.5,175.5 130.5,169.5 130.5,163.5 Z"/></g>
<g><path style="opacity:1" fill="#831500" d="M 133.5,163.5 C 137.833,163.5 142.167,163.5 146.5,163.5C 146.5,169.5 146.5,175.5 146.5,181.5C 142.167,181.5 137.833,181.5 133.5,181.5C 133.5,175.5 133.5,169.5 133.5,163.5 Z"/></g>
<g><path style="opacity:1" fill="#9f4000" d="M 146.5,163.5 C 159.833,163.5 173.167,163.5 186.5,163.5C 186.5,166.5 186.5,169.5 186.5,172.5C 176.167,172.5 165.833,172.5 155.5,172.5C 155.5,183.833 155.5,195.167 155.5,206.5C 165.833,206.5 176.167,206.5 186.5,206.5C 186.5,209.5 186.5,212.5 186.5,215.5C 168.833,215.5 151.167,215.5 133.5,215.5C 133.5,204.167 133.5,192.833 133.5,181.5C 137.833,181.5 142.167,181.5 146.5,181.5C 146.5,175.5 146.5,169.5 146.5,163.5 Z"/></g>
<g><path style="opacity:1" fill="#4f0d00" d="M 186.5,172.5 C 186.5,183.833 186.5,195.167 186.5,206.5C 176.167,206.5 165.833,206.5 155.5,206.5C 155.5,195.167 155.5,183.833 155.5,172.5C 165.833,172.5 176.167,172.5 186.5,172.5 Z"/></g>
<g><path style="opacity:1" fill="#7e3300" d="M 186.5,172.5 C 188.833,172.5 191.167,172.5 193.5,172.5C 193.5,183.833 193.5,195.167 193.5,206.5C 191.167,206.5 188.833,206.5 186.5,206.5C 186.5,195.167 186.5,183.833 186.5,172.5 Z"/></g>
<g><path style="opacity:1" fill="#7e1500" d="M 87.5,181.5 C 97.1667,181.5 106.833,181.5 116.5,181.5C 116.5,184.5 116.5,187.5 116.5,190.5C 106.833,190.5 97.1667,190.5 87.5,190.5C 87.5,187.5 87.5,184.5 87.5,181.5 Z"/></g>
<g><path style="opacity:1" fill="#7e3300" d="M 116.5,181.5 C 121.167,181.5 125.833,181.5 130.5,181.5C 130.5,184.5 130.5,187.5 130.5,190.5C 125.833,190.5 121.167,190.5 116.5,190.5C 116.5,187.5 116.5,184.5 116.5,181.5 Z"/></g>
</svg>
